HIERARCHY
ROOT SpineBase
{
  OFFSET 0.000000 0.000000 0.000000
  CHANNELS 6 Xposition Yposition Zposition Zrotation Xrotation Yrotation
  JOINT SpineMid
  {
    OFFSET 0.000000 26.521971 0.000000
    CHANNELS 3 Zrotation Xrotation Yrotation
    JOINT SpineShoulder
    {
      OFFSET 0.146632 19.854501 -0.687667
      CHANNELS 3 Zrotation Xrotation Yrotation
      JOINT Neck
      {
        OFFSET -0.021497 6.602905 -0.559643
        CHANNELS 3 Zrotation Xrotation Yrotation
        JOINT Head
        {
          OFFSET 1.707796 12.271628 0.512580
          CHANNELS 3 Zrotation Xrotation Yrotation
          End Site
          {
            OFFSET 0 0 0
          }
        }
      }
      JOINT ShoulderLeft
      {
        OFFSET -11.501950 -2.783631 -7.691896
        CHANNELS 3 Zrotation Xrotation Yrotation
        JOINT ElbowLeft
        {
          OFFSET -1.491276 -22.957393 -5.297437
          CHANNELS 3 Zrotation Xrotation Yrotation
          JOINT WristLeft
          {
            OFFSET 7.006910 -15.400842 -4.891950
            CHANNELS 3 Zrotation Xrotation Yrotation
            JOINT HandLeft
            {
              OFFSET 3.417008 -6.144522 -0.470883
              CHANNELS 3 Zrotation Xrotation Yrotation
              JOINT HandTipLeft
              {
                OFFSET 2.839832 -5.583547 -0.893357
                CHANNELS 3 Zrotation Xrotation Yrotation
                End Site
                {
                  OFFSET 0 0 0
                }
              }
              JOINT ThumbLeft
              {
                OFFSET -1.142759 -0.494445 -0.702279
                CHANNELS 3 Zrotation Xrotation Yrotation
                End Site
                {
                  OFFSET 0 0 0
                }
              }
            }
          }
        }
      }
      JOINT ShoulderRight
      {
        OFFSET 13.411525 -3.016530 4.363768
        CHANNELS 3 Zrotation Xrotation Yrotation
        JOINT ElbowRight
        {
          OFFSET 0.667348 -24.557340 1.455664
          CHANNELS 3 Zrotation Xrotation Yrotation
          JOINT WristRight
          {
            OFFSET 3.292477 -21.071063 -2.028246
            CHANNELS 3 Zrotation Xrotation Yrotation
            JOINT HandRight
            {
              OFFSET -2.233646 -5.557756 -2.070178
              CHANNELS 3 Zrotation Xrotation Yrotation
              JOINT HandTipRight
              {
                OFFSET 0.701025 -5.419401 -0.457391
                CHANNELS 3 Zrotation Xrotation Yrotation
                End Site
                {
                  OFFSET 0 0 0
                }
              }
              JOINT ThumbRight
              {
                OFFSET 1.530362 -0.085526 -1.612056
                CHANNELS 3 Zrotation Xrotation Yrotation
                End Site
                {
                  OFFSET 0 0 0
                }
              }
            }
          }
        }
      }
    }
  }
  JOINT HipLeft
  {
    OFFSET -5.486594 0.969495 -5.268562
    CHANNELS 3 Zrotation Xrotation Yrotation
    JOINT KneeLeft
    {
      OFFSET -2.818311 -28.709507 -4.834052
      CHANNELS 3 Zrotation Xrotation Yrotation
      JOINT AnkleLeft
      {
        OFFSET -2.662262 -36.003419 13.369637
        CHANNELS 3 Zrotation Xrotation Yrotation
        JOINT FootLeft
        {
          OFFSET 3.955525 -1.499452 -13.589379
          CHANNELS 3 Zrotation Xrotation Yrotation
          End Site
          {
            OFFSET 0 0 0
          }
        }
      }
    }
  }
  JOINT HipRight
  {
    OFFSET 5.250693 0.671118 -0.833149
    CHANNELS 3 Zrotation Xrotation Yrotation
    JOINT KneeRight
    {
      OFFSET -1.713762 -28.581974 -0.162209
      CHANNELS 3 Zrotation Xrotation Yrotation
      JOINT AnkleRight
      {
        OFFSET -8.385200 -33.135878 3.174597
        CHANNELS 3 Zrotation Xrotation Yrotation
        JOINT FootRight
        {
          OFFSET 3.068984 -3.144283 -10.534847
          CHANNELS 3 Zrotation Xrotation Yrotation
          End Site
          {
            OFFSET 0 0 0
          }
        }
      }
    }
  }
}
MOTION
Frames: 6
Frame Time: 0.033333
19.891383 69.202931 356.467731 -7.929530 -11.904734 -15.676152 0.549813 -0.313622 14.608365 -0.244452 0.165222 -0.480797 -26.552313 17.532386 9.198256 0.000000 0.000000 0.000000 -30.883598 -6.345498 12.652508 74.614611 17.299317 -22.570034 48.821367 14.682541 7.515444 -22.652357 31.331791 -9.039249 0.000000 0.000000 0.000000 0.000000 0.000000 0.000000 22.319643 -23.052528 1.229054 -179.065727 73.029161 176.777975 26.964918 -16.909743 -22.772507 -7.681639 -66.619044 27.197650 0.000000 0.000000 0.000000 0.000000 0.000000 0.000000 23.460394 38.178457 0.144807 -81.045408 -35.104062 -45.923578 41.723642 -19.214497 27.135623 0.000000 0.000000 0.000000 10.316695 23.485245 11.923544 -1.416320 -23.836926 6.203248 -20.568741 -29.498618 1.116041 0.000000 0.000000 0.000000
20.362800 65.910717 356.488232 -6.959091 -11.305970 -15.903586 0.550047 -0.352865 15.007549 -0.271153 0.137238 -0.431958 -28.553273 15.305671 8.988545 0.000000 0.000000 0.000000 -26.473664 -5.722180 10.956046 78.518798 20.005781 -25.461909 41.960518 12.937176 10.655147 -12.809936 28.207941 -11.472087 0.000000 0.000000 0.000000 0.000000 0.000000 0.000000 20.671590 -22.423674 1.179006 176.309570 73.642975 -177.152947 31.969725 -19.880262 -19.322129 -31.753230 -58.555874 12.771163 0.000000 0.000000 0.000000 0.000000 0.000000 0.000000 20.656945 36.877430 2.100093 -78.691821 -37.176444 -45.016790 37.501839 -17.376078 20.636932 0.000000 0.000000 0.000000 10.948673 26.224218 11.615131 -5.687655 -29.315990 6.068459 -17.110673 -24.916563 5.136441 0.000000 0.000000 0.000000
20.764113 63.897861 356.607482 -5.834504 -10.684627 -16.715722 0.728005 -0.242109 15.994577 -0.254469 0.162713 -0.362265 -32.248408 11.049564 8.613840 0.000000 0.000000 0.000000 -25.566584 -4.785761 10.230474 82.314446 20.041607 -26.787538 43.963962 15.971995 11.329410 -10.234812 27.296065 -15.113224 0.000000 0.000000 0.000000 0.000000 0.000000 0.000000 17.002405 -21.291735 0.863796 174.458305 74.001743 -172.517876 39.289687 -17.543208 -18.591348 -49.177001 -38.924637 8.086266 0.000000 0.000000 0.000000 0.000000 0.000000 0.000000 17.288721 38.586328 3.973747 -76.585113 -41.406448 -45.948752 31.563868 -19.480558 15.030326 0.000000 0.000000 0.000000 10.163272 27.570819 12.444239 -8.257794 -32.358288 5.622183 -14.615479 -19.893962 4.456474 0.000000 0.000000 0.000000
20.564849 63.823809 356.659269 -5.446726 -10.075942 -16.773023 1.096807 -0.142852 16.109862 -0.064465 0.146370 -0.322861 -33.781959 7.257087 7.803025 0.000000 0.000000 0.000000 -27.957853 -3.751249 10.670705 87.437055 18.819114 -26.726398 49.194528 18.087310 11.428673 -16.155486 34.665241 -19.984442 0.000000 0.000000 0.000000 0.000000 0.000000 0.000000 15.296311 -21.721106 0.881387 169.185883 73.957223 -165.751417 36.820226 -6.535412 -29.651043 -51.319877 -7.195914 15.225160 0.000000 0.000000 0.000000 0.000000 0.000000 0.000000 15.012464 40.376381 4.829455 -69.054291 -45.949642 -42.169928 23.793743 -17.958365 9.944056 0.000000 0.000000 0.000000 10.521529 26.635893 12.538625 -9.522347 -31.811724 5.177935 -12.179147 -13.680514 2.463151 0.000000 0.000000 0.000000
19.766102 64.768664 356.740709 -5.931006 -10.125989 -12.978818 0.963218 0.360688 12.272905 0.017230 0.475891 -0.326043 -32.455108 3.745472 6.623573 0.000000 0.000000 0.000000 -32.871600 -3.292542 12.085637 93.240467 16.227903 -24.968257 55.655760 17.027708 11.730308 -37.284589 56.301636 -20.952251 0.000000 0.000000 0.000000 0.000000 0.000000 0.000000 16.828100 -25.142743 1.490024 166.442923 71.504132 -163.551775 27.255013 6.978904 -42.908229 -38.371920 2.860616 29.433495 0.000000 0.000000 0.000000 0.000000 0.000000 0.000000 19.385609 44.055068 -1.712413 -63.914840 -50.867195 -39.304183 17.874557 -10.093677 4.154928 0.000000 0.000000 0.000000 13.366926 22.767722 8.578100 -8.332189 -27.137365 5.324938 -10.664231 -6.588289 2.338305 0.000000 0.000000 0.000000
18.508368 67.287497 356.405379 -6.943061 -10.121329 -12.762998 0.971908 0.226100 11.929442 0.110926 0.390355 -0.379497 -30.464790 2.938731 6.408852 0.000000 0.000000 0.000000 -38.601281 -2.057307 14.642665 98.231739 13.113118 -21.915517 55.194480 31.066881 5.211317 -32.694245 48.780414 -28.107172 0.000000 0.000000 0.000000 0.000000 0.000000 0.000000 19.401500 -29.215656 2.183980 166.903904 68.249895 -165.601768 13.982420 16.155899 -48.771615 -22.459113 4.023788 40.994887 0.000000 0.000000 0.000000 0.000000 0.000000 0.000000 22.244138 47.828780 -4.238142 -59.956988 -54.911795 -36.372492 11.773013 -15.443330 2.786004 0.000000 0.000000 0.000000 14.430153 18.343259 8.795492 -5.715107 -20.187877 5.229500 -9.603377 0.813779 2.215421 0.000000 0.000000 0.000000
